<svg xmlns="http://www.w3.org/2000/svg" width="490" height="200"><style>.a{-inkscape-font-specification:Gill Sans MT;font-family:Gill Sans MT;font-size:0px;line-height:0%;stroke-width:1px;text-align:start;}</style><path d="M227 198L161 198 161 3 212 3C228 3 241 5 250 9 259 13 266 19 271 27 275 34 278 43 278 53 278 72 268 86 248 94 262 97 274 103 282 112 290 121 295 132 295 145 295 154 292 163 287 171 282 179 274 185 264 190 254 195 242 198 227 198L227 198zM213 27L189 27 189 86 208 86C222 86 233 83 239 78 246 72 249 65 249 55 249 37 237 27 213 27L213 27zM215 111L189 111 189 173 216 173C232 173 242 172 248 169 253 167 257 163 261 158 264 153 266 148 266 142 266 136 264 131 260 126 257 121 252 117 246 115 239 112 229 111 215 111L215 111z" class="a"/><path d="M66 198L0 198 0 3 51 3C67 3 80 5 89 9 98 13 105 19 110 27 114 34 117 43 117 53 117 72 107 86 87 94 101 97 113 103 121 112 129 121 134 132 134 145 134 154 131 163 126 171 121 179 113 185 103 190 93 195 81 198 66 198L66 198zM52 27L28 27 28 86 47 86C61 86 72 83 78 78 85 72 88 65 88 55 88 37 76 27 52 27L52 27zM54 111L28 111 28 173 55 173C71 173 81 172 87 169 92 167 96 163 100 158 103 153 105 148 105 142 105 136 103 131 99 126 96 121 91 117 85 115 78 112 68 111 54 111L54 111z" class="a"/><path d="M490 152L490 183C470 194 446 200 419 200 397 200 379 196 364 187 349 178 337 166 328 151 319 135 314 119 314 101 314 72 325 48 345 29 365 10 390 0 420 0 440 0 463 5 488 16L488 46C465 33 443 27 421 27 399 27 380 34 366 48 351 62 343 80 343 101 343 122 351 140 365 154 380 167 398 174 421 174 445 174 468 167 490 152L490 152z" class="a"/></svg>
