<svg xmlns="http://www.w3.org/2000/svg" viewbox="0 0 200 200" width="256" height="256" style="transform: rotate(-30deg)">
  <g transform="translate(-260,-260)">
      <path fill="#f00" d="M 320,423 L 412,583 L 228,583 L 320,423.44386 z " transform="matrix(0.544356,0,0,0.544356,136.0974,114.176)"/>
      <path fill="#fff" d="M 320,423.44386 L 411.8517,582.53567 L 228.1483,582.53567 L 320,423.44386 z " transform="matrix(-0.544356,0,0,-0.544356,534.4853,661.7869)"/>
      <path fill="#f00" d="M 320,423.44386 L 411.8517,582.53567 L 228.1483,582.53567 L 320,423.44386 z " transform="matrix(0.544356,0,0,0.544356,186.0974,27.57334)"/>
      <path fill="#f00" d="M 320,423.44386 L 411.8517,582.53567 L 228.1483,582.53567 L 320,423.44386 z " transform="matrix(0.544356,0,0,0.544356,236.0974,114.176)"/>
  </g>
</svg>