<svg xmlns="http://www.w3.org/2000/svg" viewBox="36 0 110 110">
<path d="M123,105c.5,1,1,2.59554,2,3.20837a5.00538,5.00538,0,0,0,2.52344.32444H143.7588a2.56645,2.56645,0,0,0,2.27109-3.74911c-.97333-1.87456-1.9827-3.71306-2.956-5.58762l-6.02021-11.35548a5.7487,5.7487,0,0,1-.757-1.65826s-.2163-.36049.0721-1.33382c.28839-.721,3.92935-7.89476,4.14565-8.61574,1.478-4.57824,19.46653-47.94535-31.579-52.3794a11.55993,11.55993,0,0,1,1.11753.68493,36.33607,36.33607,0,0,1,10.88684,10.85079,35.71276,35.71276,0,0,1,2.73974,33.2373,34.71632,34.71632,0,0,1-2.70369,5.119,35.35483,35.35483,0,0,1-6.41674,7.49822,3.7504,3.7504,0,0,0-1.33382,1.65826,2.49392,2.49392,0,0,0,.10814,1.83851Z" transform="translate(-0.2 -0.78876)" fill="#4ba2ea"/><path d="M36.40448,48.74941c8.2192-5.58762,16.51051-5.94811,19.106,1.76641a1.61653,1.61653,0,0,0-.03605.39654A35.63007,35.63007,0,0,0,86.1523,90.38615a35.20365,35.20365,0,0,0,9.73327-.03605c.79309-.10814,1.55011-.25235,2.34319-.39654a4.70253,4.70253,0,0,1,1.73035-.14419c.90123,11.031-33.70594,13.915-55.11913-12.473-5.29923-6.52489-7.85871-19.68283-8.4355-28.587" transform="translate(-0.2 -0.78876)" fill="#ff3b4a"/><path d="M143.29018,71.06382a52.19685,52.19685,0,0,1-3.28047,8.039c-.28839.54074-.54074,1.04542-.82913,1.58616-.39654.721-.82913,1.478-1.26172,2.199a13.08267,13.08267,0,0,0-1.55011,2.55949l.03605-.14419a22.579,22.579,0,0,0,.757-2.199,47.41378,47.41378,0,0,0-28.22648-58.79615c-.18025-.10815-.32444-.18025-.50469-.28839h0c1.36986.721-6.48884-19.07,9.84141-16.5105.68493.36049,1.36986.757,2.05481,1.15357a51.87766,51.87766,0,0,1,12.473,10.45425,52.39944,52.39944,0,0,1,9.22858,15.17668,55.053,55.053,0,0,1,3.677,18.96185A55.07978,55.07978,0,0,1,143.29018,71.06382Z" transform="translate(-0.2 -0.78876)" fill="#65cee7"/><path d="M122.634,15.54816a9.822,9.822,0,0,1-.68493,3.56887,9.65588,9.65588,0,0,1-8.94018,6.05626,9.79667,9.79667,0,0,1-4.57824-1.15357h0A36.226,36.226,0,0,0,94.011,19.54961a35.036,35.036,0,0,0-18.349,3.28047,34.67684,34.67684,0,0,0-7.71451,4.93873,35.883,35.883,0,0,0-5.876,6.27255A36.25969,36.25969,0,0,0,55.69078,49.146C38.13484,27.66067,74.184-6.9465,114.63111,6.06723h0c.68493.18025,1.40591.39654,2.09085.61284.50469.25234,1.04542.50469,1.55011.79308h.03605A9.68163,9.68163,0,0,1,122.634,15.54816Z" transform="translate(-0.2 -0.78876)" fill="#87c966"/><path d="M116.50566,6.57192a11.06021,11.06021,0,0,0-1.87456-.50469h0a47.12859,47.12859,0,0,0-9.37278-1.55011c-.93728-.0721-1.87456-.0721-2.84788-.0721A46.9904,46.9904,0,0,0,55.69076,49.14595a2.82766,2.82766,0,0,0-.0721.50469h0c-.03605.28839-.0721.57679-.10815.82913h0a9.64055,9.64055,0,0,1-9.48092,7.85871H45.7412a9.61243,9.61243,0,0,1-9.33672-9.62512c0-.43259.03605-.82913.0721-1.22567h0a53.396,53.396,0,0,1,4.83058-16.40236A51.57675,51.57675,0,0,1,52.23,15.9447a55.4146,55.4146,0,0,1,15.429-10.4182A54.74409,54.74409,0,0,1,85.86389.98431a64.16007,64.16007,0,0,1,10.85079.0721A53.68473,53.68473,0,0,1,104.24895,2.246,55.08808,55.08808,0,0,1,116.50566,6.57192Z" transform="translate(-0.2 -0.78876)" fill="#ffda12"/><path d="M107.88992,105.34656c-.50469,1.442-1.9827,1.69431-3.31652,2.01875-1.58616.39654-3.17232.68493-4.79453.93728-2.92.43259-5.876.61284-8.796.757a49.04025,49.04025,0,0,1-9.19253-.57679,61.17333,61.17333,0,0,1-9.48092-2.16295A52.00631,52.00631,0,0,1,52.30215,94.49576a51.12209,51.12209,0,0,1-7.85871-9.517,52.86178,52.86178,0,0,1-7.06563-16.97915,61.76468,61.76468,0,0,1-1.00938-19.106v-.14419a46.624,46.624,0,0,0,43.15082,43.8718c1.26172.10814,2.52344.14419,3.82121.14419a46.82746,46.82746,0,0,0,16.5826-2.99207.917.917,0,0,1,.25235.0721,2.49428,2.49428,0,0,1,1.55011,1.40591c1.18962,2.34319,2.37925,4.68639,3.53281,7.06563.03605.0721.0721.18025.10814.25235.61284,1.18962,1.18962,2.4153,1.80246,3.60491C107.70968,103.18361,108.32252,104.15694,107.88992,105.34656Z" transform="translate(-0.2 -0.78876)" fill="#af27cc"/></svg>