<svg xmlns="http://www.w3.org/2000/svg" width="48" height="48" viewBox="0 0 48 48"><style>.a{fill:#00853e;}</style><path d="M19 0L29 0C33 2 37 4 41 7 44 11 46 15 48 19L48 29C46 33 44 37 41 41 37 44 33 46 29 48L19 48C15 46 11 44 7 41 4 37 2 33 0 29L0 19C2 15 4 11 7 7 11 4 15 2 19 0M3 23C2 32 9 41 17 44 15 34 10 26 8 16 10 15 12 15 15 15 16 18 17 21 18 23 19 26 21 29 24 31 27 33 32 30 33 26 32 21 29 17 28 12 30 12 32 12 34 11 36 16 37 21 40 25 41 27 43 27 45 27 47 15 37 3 25 3 14 2 3 12 3 23M30 35C28 36 25 36 23 36 24 39 25 42 27 45 35 44 41 38 44 31 41 31 39 31 36 30 34 32 32 34 30 35Z" fill="#fff"/><path d="M3 23C3 12 14 2 25 3 37 3 47 15 45 27 43 27 41 27 40 25 37 21 36 16 34 11 32 12 30 12 28 12 29 17 32 21 33 26 32 30 27 33 24 31 21 29 19 26 18 23 17 21 16 18 15 15 12 15 10 15 8 16 10 26 15 34 17 44 9 41 2 32 3 23Z" class="a"/><path d="M30 35C32 34 34 32 36 30 39 31 41 31 44 31 41 38 35 44 27 45 25 42 24 39 23 36 25 36 28 36 30 35Z" class="a"/></svg>